<?xml version="1.0" encoding="UTF-8" standalone="no"?>
<!DOCTYPE svg PUBLIC "-//W3C//DTD SVG 1.1//EN" "http://www.w3.org/Graphics/SVG/1.1/DTD/svg11.dtd">
<svg version="1.1" xmlns="http://www.w3.org/2000/svg" xmlns:xlink="http://www.w3.org/1999/xlink" preserveAspectRatio="xMidYMid meet" viewBox="0 0 32 32" width="32" height="32"><defs><path d="M29.64 0C30.94 0 32 1.06 32 2.36C32 8.29 32 23.71 32 29.64C32 30.94 30.94 32 29.64 32C23.71 32 8.29 32 2.36 32C1.06 32 0 30.94 0 29.64C0 23.71 0 8.29 0 2.36C0 1.06 1.06 0 2.36 0C8.29 0 23.71 0 29.64 0Z" id="hrWcUlwbQ"></path><path d="M1.15 15.04L7.77 11.16L7.77 15.04L1.15 17.76L1.15 15.04Z" id="bs5Z98nZ"></path><path d="M1.15 17.79L7.77 21.68L7.77 17.79L1.15 15.07L1.15 17.79Z" id="g3kPacNfyC"></path><path d="M30.85 14.95L24.23 11.06L24.23 14.95L30.85 17.67L30.85 14.95Z" id="a2r3MGBzsf"></path><path d="M30.85 17.89L24.23 21.77L24.23 17.89L30.85 15.17L30.85 17.89Z" id="j11RKrqXuC"></path><path d="M10.31 14.33L21.69 14.33L21.69 17.83L10.31 17.83L10.31 14.33Z" id="f6Fwcrzu4"></path><path d="M21.69 20.94L21.69 24.44L10.31 24.44C10.31 22.7 10.31 21.61 10.31 21.17C10.31 21.04 10.42 20.94 10.55 20.94C12.03 20.94 15.75 20.94 21.69 20.94Z" id="bxBkulBwb"></path><path d="M10.31 7.56L21.69 7.56L21.69 11.06L10.31 11.06L10.31 7.56Z" id="a6I1gzZD9"></path><path d="M10.31 10.47L13.9 10.47L13.9 21.18L10.31 21.18L10.31 10.47Z" id="bpF1yaX7h"></path></defs><g><g><g><use xlink:href="#hrWcUlwbQ" opacity="1" fill="#312d3c" fill-opacity="1"></use></g><g><g><g><use xlink:href="#bs5Z98nZ" opacity="1" fill="#d3d3d3" fill-opacity="1"></use></g><g><use xlink:href="#g3kPacNfyC" opacity="1" fill="#d3d3d3" fill-opacity="1"></use></g></g><g><g><g><use xlink:href="#a2r3MGBzsf" opacity="1" fill="#d3d3d3" fill-opacity="1"></use></g><g><use xlink:href="#j11RKrqXuC" opacity="1" fill="#d3d3d3" fill-opacity="1"></use></g></g></g><g><use xlink:href="#f6Fwcrzu4" opacity="1" fill="#d3d3d3" fill-opacity="1"></use></g><g><use xlink:href="#bxBkulBwb" opacity="1" fill="#d3d3d3" fill-opacity="1"></use></g><g><use xlink:href="#a6I1gzZD9" opacity="1" fill="#d3d3d3" fill-opacity="1"></use></g><g><use xlink:href="#bpF1yaX7h" opacity="1" fill="#d3d3d3" fill-opacity="1"></use></g></g></g></g></svg>